<?xml version="1.0" encoding="utf-8"?><svg viewBox="0 0 112 112" xmlns="http://www.w3.org/2000/svg" xmlns:xlink="http://www.w3.org/1999/xlink"><style>:root>svg{display:none}:root>svg:target{display:block}</style><svg fill="none" viewBox="0 0 16 16" id="arrow-left" xmlns="http://www.w3.org/2000/svg"><path d="M15 8H1M8 15L1 8l7-7" stroke="#fff" stroke-width="2" stroke-linecap="round" stroke-linejoin="round"/></svg><svg fill="none" viewBox="0 0 16 16" id="arrow-right" xmlns="http://www.w3.org/2000/svg"><path d="M1 8h14M8 1l7 7-7 7" stroke="#fff" stroke-width="2" stroke-linecap="round" stroke-linejoin="round"/></svg><svg fill="none" viewBox="0 0 11 20" id="fb" xmlns="http://www.w3.org/2000/svg"><path fill-rule="evenodd" clip-rule="evenodd" d="M11 0H8a5 5 0 00-5 5v3H0v4h3v8h4v-8h3l1-4H7V5a1 1 0 011-1h3V0z" fill="#fff"/></svg><svg fill="none" viewBox="0 0 68 68" id="play" xmlns="http://www.w3.org/2000/svg"><path clip-rule="evenodd" d="M34 66c17.673 0 32-14.327 32-32C66 16.327 51.673 2 34 2 16.327 2 2 16.327 2 34c0 17.673 14.327 32 32 32z" stroke="#fff" stroke-width="4"/><path clip-rule="evenodd" d="M27 24l16 10.286L27 44.57V24v0z" stroke="#fff" stroke-width="4" stroke-linecap="round" stroke-linejoin="round"/></svg><svg fill="none" viewBox="0 0 34 44" id="play-2" xmlns="http://www.w3.org/2000/svg"><path clip-rule="evenodd" d="M1 1l32 20.571L1 42.143V1v0z" stroke="#fff" stroke-width="2" stroke-linecap="round" stroke-linejoin="round"/></svg><svg fill="none" viewBox="0 0 20 20" id="search" xmlns="http://www.w3.org/2000/svg"><path clip-rule="evenodd" d="M9 17A8 8 0 109 1a8 8 0 000 16z" stroke="#000" stroke-width="2" stroke-linecap="round" stroke-linejoin="round"/><path d="M19 19l-4.35-4.35" stroke="#000" stroke-width="2" stroke-linecap="round" stroke-linejoin="round"/></svg><svg fill="none" viewBox="0 0 20 17" id="tw" xmlns="http://www.w3.org/2000/svg"><path fill-rule="evenodd" clip-rule="evenodd" d="M20 .01a9.91 9.91 0 01-2.855 1.39A4.073 4.073 0 0010 4.128v.909A9.69 9.69 0 011.818.918S-1.818 9.1 6.364 12.737A10.582 10.582 0 010 14.555c8.182 4.545 18.182 0 18.182-10.455-.001-.253-.025-.506-.073-.754A7.018 7.018 0 0020 .009z" fill="#fff"/></svg><svg fill="none" viewBox="0 0 24 24" id="user" xmlns="http://www.w3.org/2000/svg"><g opacity=".5" stroke="#000" stroke-width="2" stroke-linecap="round" stroke-linejoin="round"><path d="M20 21v-2a4 4 0 00-4-4H8a4 4 0 00-4 4v2"/><path clip-rule="evenodd" d="M12 11a4 4 0 100-8 4 4 0 000 8z"/></g></svg><svg fill="none" viewBox="0 0 112 112" id="video-play" xmlns="http://www.w3.org/2000/svg"><path fill-rule="evenodd" clip-rule="evenodd" d="M56 112c30.928 0 56-25.072 56-56S86.928 0 56 0 0 25.072 0 56s25.072 56 56 56z" fill="#E8594E"/><path fill-rule="evenodd" clip-rule="evenodd" d="M46 41l24 15.429-24 15.428V41z" fill="#fff"/></svg></svg>